HIERARCHY
ROOT root     
{
	OFFSET 0.0000 0.0000 0.0000
	CHANNELS 6 Xposition Yposition Zposition Zrotation Yrotation Xrotation
	JOINT pelvis   
	{
		OFFSET 0.0000 0.0000 0.0000
		CHANNELS 3 Zrotation Yrotation Xrotation
		JOINT thorax   
		{
			OFFSET 0.0000 23.0750 -5.0000
			CHANNELS 3 Zrotation Yrotation Xrotation
			JOINT rclavicle
			{
				OFFSET 0.0000 28.0009 0.0000
				CHANNELS 3 Zrotation Yrotation Xrotation
				JOINT rhumerus 
				{
					OFFSET -18.5725 5.5939 0.0000
					CHANNELS 3 Zrotation Yrotation Xrotation
					JOINT rradius  
					{
						OFFSET -24.8459 0.0000 0.0000
						CHANNELS 3 Zrotation Yrotation Xrotation
						JOINT rhand    
						{
							OFFSET -24.5477 0.0000 0.0000
							CHANNELS 3 Zrotation Yrotation Xrotation
							End Site
							{
								OFFSET -8.1826 0.0000 0.0000
							}
						}
					}
				}
			}
			JOINT lclavicle
			{
				OFFSET 0.0000 28.0009 0.0000
				CHANNELS 3 Zrotation Yrotation Xrotation
				JOINT lhumerus 
				{
					OFFSET 18.5725 5.5939 0.0000
					CHANNELS 3 Zrotation Yrotation Xrotation
					JOINT lradius  
					{
						OFFSET 24.8459 0.0000 0.0000
						CHANNELS 3 Zrotation Yrotation Xrotation
						JOINT lhand    
						{
							OFFSET 24.5477 0.0000 0.0000
							CHANNELS 3 Zrotation Yrotation Xrotation
							End Site
							{
								OFFSET 8.1826 0.0000 0.0000
							}
						}
					}
				}
			}
			JOINT head     
			{
				OFFSET 0.0000 35.2030 0.0000
				CHANNELS 3 Zrotation Yrotation Xrotation
				End Site
				{
					OFFSET 0.0000 11.7343 0.0000
				}
			}
		}
		JOINT rfemur   
		{
			OFFSET -8.2817 0.0000 0.0000
			CHANNELS 3 Zrotation Yrotation Xrotation
			JOINT rtibia   
			{
				OFFSET 0.0000 -43.3627 0.0000
				CHANNELS 3 Zrotation Yrotation Xrotation
				JOINT rfoot    
				{
					OFFSET 0.0000 -38.2947 0.0000
					CHANNELS 3 Zrotation Yrotation Xrotation
					JOINT rtoes    
					{
						OFFSET 0.0000 0.0000 16.6054
						CHANNELS 3 Zrotation Yrotation Xrotation
						End Site
						{
							OFFSET 0.0000 0.0000 5.5351
						}
					}
				}
			}
		}
		JOINT lfemur   
		{
			OFFSET 8.2817 0.0000 0.0000
			CHANNELS 3 Zrotation Yrotation Xrotation
			JOINT ltibia   
			{
				OFFSET 0.0000 -43.3627 0.0000
				CHANNELS 3 Zrotation Yrotation Xrotation
				JOINT lfoot    
				{
					OFFSET 0.0000 -38.2947 0.0000
					CHANNELS 3 Zrotation Yrotation Xrotation
					JOINT ltoes    
					{
						OFFSET 0.0000 0.0000 16.6054
						CHANNELS 3 Zrotation Yrotation Xrotation
						End Site
						{
							OFFSET 0.0000 0.0000 5.5351
						}
					}
				}
			}
		}
	}
}
MOTION
Frames: 21
Frame Time: .0333333
-75.972 84.612 0.1271 124.233 88.004 144.946 0 -0 0 6.44567 -12.1692 -8.28123 26.4057 -9.87947 4.07692e-06 54.3528 -3.04002 -12.1369 -0 71.5653 -0 -11.0981 10.7694 -1.04931 -26.3336 12.8214 -0.000158346 -36.5669 -9.42493 8.85448 180 -77.8784 -180 8.61377 -4.08014 -0.3074 -5.9153 7.11129 -10.856 1.87616 -6.56099 -41.3658 -0 -0 25.3691 -1.18506e-06 2.94646 10.1531 0.519799 -6.50193e-07 -40.0551 2.46578 6.55229 1.39967 -0 -0 19.6208 -4.54645e-05 -8.63525 15.6752 -2.34955 1.57907e-05 -81.3869 
-74.918 84.413 0.2535 122.814 87.9022 143.492 0 -0 0 6.70348 -12.0735 -8.25834 26.4335 -9.734 -1.56681e-05 54.197 -2.86397 -12.3053 -7.279e-07 70.2734 -1.03429e-06 -12.2084 10.6207 -1.1391 -26.5357 12.8683 4.68077e-05 -36.6307 -9.46934 8.68939 180 -77.1352 -180 8.73873 -4.35501 -0.332897 -6.65886 7.06028 -11.1225 1.71676 -6.39429 -41.6302 -0 -0 27.4854 -8.02886e-06 2.51345 8.49722 0.371606 -1.69825e-06 -36.4349 2.66385 6.27658 1.2939 -0 -0 21.0413 -2.2591e-05 -9.24501 16.1267 -2.58865 -2.47621e-05 -81.7038 
-73.873 84.256 0.382 123.798 87.7858 144.397 0 -0 0 7.01491 -12.0151 -8.18601 26.4545 -9.58837 -5.06964e-05 54.0305 -2.61931 -12.4174 -0 68.9999 -0 -13.3915 10.3599 -1.21946 -26.7248 12.9171 -1.9822e-05 -36.8597 -9.53404 8.54718 180 -76.5255 -180 8.88444 -4.57618 -0.355689 -7.40462 7.01557 -11.323 1.62277 -6.30396 -41.7412 -0 -0 29.5539 3.11126e-06 2.11348 6.8129 0.250794 -4.94463e-08 -33.5086 2.91864 5.92352 1.09859 -0 -0 22.598 2.02384e-05 -9.81175 16.6956 -2.84426 -7.66618e-07 -81.7161 
-72.839 84.145 0.5162 127.121 87.6729 147.617 0 -0 0 7.40015 -11.9974 -8.07924 26.4598 -9.44949 1.8472e-05 53.8744 -2.31956 -12.4882 -9.37203e-07 67.7867 -6.29597e-07 -14.6114 9.97036 -1.28146 -26.9062 12.9647 -5.26688e-05 -37.238 -9.60826 8.43528 180 -76.0396 -180 9.04036 -4.74488 -0.375301 -8.15332 6.97999 -11.4505 1.60487 -6.26695 -41.6608 -0 -0 31.3908 -1.30428e-06 1.7446 5.24222 0.159406 4.29546e-07 -31.5431 3.24458 5.51749 0.798693 -0 -0 24.2834 -3.06426e-05 -10.3217 17.3898 -3.11553 4.66388e-05 -81.3374 
-71.82 84.085 0.6569 132.472 87.5609 152.852 0 -0 0 7.86134 -12.0127 -7.95485 26.4453 -9.32335 2.62024e-05 53.7453 -1.9833 -12.5369 -5.92241e-07 66.6673 -9.0046e-07 -15.8253 9.44478 -1.31562 -27.0859 13.0101 -0.000100148 -37.741 -9.68385 8.36051 180 -75.683 180 9.19181 -4.86545 -0.391302 -8.90303 6.95359 -11.5016 1.66759 -6.27452 -41.3753 -0 -0 32.8694 2.35095e-06 1.40905 3.87586 0.0952998 -2.68797e-07 -30.62 3.63931 5.07597 0.385398 -0 -0 26.0783 2.71985e-05 -10.7486 18.2042 -3.394 -2.39267e-05 -80.4677 
-70.816 84.077 0.8025 139.163 87.3653 159.406 0 -0 0 8.38501 -12.0544 -7.83105 26.4087 -9.21509 -5.65995e-05 53.6595 -1.63262 -12.5833 -0 65.6823 -0 -16.9844 8.78912 -1.31487 -27.2665 13.0494 3.03624e-05 -38.3418 -9.74598 8.32693 180 -75.4397 -180 9.32299 -4.94388 -0.403398 -9.64668 6.93506 -11.473 1.80534 -6.32503 -40.8962 -0 -0 33.9213 3.2209e-07 1.10669 2.75773 0.0532994 3.501e-07 -30.6527 4.0861 4.61086 -0.144804 -0 -0 27.9577 2.51289e-05 -11.0599 19.1167 -3.66275 1.11383e-05 -79.0145 
-69.828 84.119 0.9513 146.281 87.1417 166.402 0 -0 0 8.95135 -12.115 -7.71992 26.3476 -9.13145 2.04668e-05 53.6354 -1.28452 -12.6453 -7.6197e-07 64.8576 -1.19934e-06 -18.045 8.02555 -1.27639 -27.4493 13.0841 -0.000139905 -39.0032 -9.78687 8.33554 180 -75.3054 -180 9.41789 -4.98689 -0.410992 -10.3787 6.92139 -11.3674 2.00673 -6.41427 -40.2383 -0 -0 34.5227 -6.31366e-07 0.828597 1.89569 0.0273999 -1.0932e-07 -31.4131 4.56687 4.13837 -0.784911 -0 -0 29.893 6.34016e-05 -11.2298 20.085 -3.90059 -5.63218e-05 -76.9328 
-68.855 84.206 1.0992 152.867 86.8338 172.868 0 -0 0 9.52505 -12.1842 -7.6317 26.2652 -9.07488 -3.05342e-05 53.6835 -0.959677 -12.7383 -5.21623e-07 64.217 -8.31278e-07 -18.9677 7.18777 -1.2023 -27.6296 13.1106 6.82432e-06 -39.6899 -9.7933 8.38416 180 -75.2652 180 9.46218 -5.00123 -0.414202 -11.0902 6.90838 -11.1892 2.24623 -6.53954 -39.4283 -0 -0 34.6921 8.99688e-09 0.562008 1.27348 0.0124997 -7.1889e-08 -32.623 5.04958 3.66722 -1.52312 -0 -0 31.854 1.01875e-06 -11.2314 21.0538 -4.08037 1.12987e-05 -74.2224 
-67.895 84.332 1.2429 158.319 86.458 178.209 0 -0 0 10.0743 -12.2526 -7.57184 26.1652 -9.04699 -2.18297e-05 53.8122 -0.671881 -12.8721 -5.10022e-07 63.764 -8.19964e-07 -19.7234 6.32184 -1.10012 -27.8055 13.1311 0.00011345 -40.3652 -9.7577 8.46832 180 -75.3054 -180 9.44365 -4.99297 -0.412696 -11.7757 6.89242 -10.9473 2.49719 -6.68848 -38.4915 -0 -0 34.4687 1.69849e-08 0.2858 0.862595 0.00430005 -3.06372e-08 -33.9893 5.5076 3.21017 -2.34344 -0 -0 33.813 -6.55917e-05 -11.0522 21.961 -4.17784 -1.34255e-05 -70.9891 
-66.946 84.491 1.3767 162.253 86.0477 -177.954 0 -0 0 10.5537 -12.3092 -7.54253 26.0552 -9.04502 4.61964e-05 54.0183 -0.434334 -13.0503 -7.12079e-07 63.504 -1.15063e-06 -20.2936 5.47766 -0.981117 -27.971 13.1489 -7.91243e-05 -40.9998 -9.67386 8.58242 180 -75.4199 -180 9.35547 -4.96709 -0.406697 -12.4287 6.86932 -10.6522 2.72251 -6.85596 -37.459 -0 -0 33.9241 2.8372e-09 -0.0121997 0.622788 -0.000100001 6.77924e-10 -35.253 5.90108 2.77015 -3.22755 -0 -0 35.7407 3.57772e-06 -10.681 22.7487 -4.17133 -1.32353e-06 -67.4047 
-66.008 84.676 1.4973 164.706 85.618 -175.583 0 -0 0 10.936 -12.3481 -7.54369 25.9439 -9.06499 1.35317e-05 54.2979 -0.250849 -13.2696 -0 63.4201 -0 -20.673 4.70598 -0.858805 -28.1228 13.1663 -4.90794e-05 -41.5634 -9.54052 8.71823 180 -75.6025 -180 9.19485 -4.92697 -0.396401 -13.0512 6.83649 -10.3181 2.89486 -7.02567 -36.3553 -0 -0 33.1331 5.90226e-08 -0.348696 0.516988 -0.00309996 1.76038e-08 -36.2354 6.20537 2.35499 -4.15976 -0 -0 37.6166 3.21113e-05 -10.1277 23.3675 -4.05257 -3.57274e-05 -63.7197 
-65.081 84.881 1.6039 165.982 85.1788 -174.376 0 -0 0 11.2117 -12.3603 -7.5739 25.8326 -9.10268 -4.51408e-05 54.6419 -0.116625 -13.5179 -0 63.4881 -0 -20.8681 4.05135 -0.746381 -28.263 13.187 -3.08367e-07 -42.0388 -9.35514 8.86407 180 -75.8362 -180 8.96525 -4.87591 -0.382511 -13.6496 6.79305 -9.9615 2.99866 -7.17308 -35.2081 -0 -0 32.1625 5.05389e-09 -0.740699 0.514298 -0.00660008 -3.68962e-08 -36.8487 6.41203 1.97418 -5.12908 -0 -0 39.4238 3.96617e-05 -9.41534 23.7873 -3.82635 -4.33958e-06 -60.223 
-64.164 85.102 1.6938 166.223 84.7734 -174.182 0 -0 0 11.3661 -12.3373 -7.62957 25.7258 -9.15044 1.98871e-05 55.0341 -0.0248785 -13.7797 -0 63.6818 -0 -20.8974 3.54735 -0.654404 -28.3884 13.2157 -0.000109507 -42.4131 -9.12303 9.01081 180 -76.1321 -180 8.67427 -4.81638 -0.365502 -14.235 6.73789 -9.59702 3.01739 -7.28846 -34.0396 -0 -0 31.0905 -8.99933e-08 -1.18491 0.582807 -0.0120996 1.74541e-07 -37.0724 6.50513 1.62906 -6.12439 -0 -0 41.1473 -1.25631e-05 -8.56764 23.9917 -3.50553 -2.71788e-05 -57.1429 
-63.26 85.335 1.7664 165.617 84.4187 -174.807 0 -0 0 11.3996 -12.276 -7.70597 25.6253 -9.20025 3.3242e-05 55.4558 0.0371806 -14.0357 -8.24957e-07 63.965 -5.1514e-07 -20.7845 3.21376 -0.589514 -28.5025 13.2536 9.91852e-06 -42.6817 -8.8458 9.14619 180 -76.4789 180 8.33455 -4.75028 -0.346308 -14.8172 6.67169 -9.23925 2.94692 -7.36232 -32.8752 -0 -0 29.9773 -1.22505e-07 -1.67096 0.698584 -0.0204002 -2.14641e-07 -36.9555 6.48146 1.3235 -7.13755 -0 -0 42.7726 -2.39177e-05 -7.61504 23.9821 -3.11047 2.90031e-06 -54.6425 
-62.369 85.577 1.8223 164.372 84.0991 -176.055 0 -0 0 11.324 -12.171 -7.7956 25.5317 -9.24617 -1.54296e-05 55.8917 0.0864442 -14.2643 -7.40873e-07 64.3017 -1.17873e-06 -20.5593 3.05586 -0.554379 -28.6064 13.3019 3.33259e-05 -42.8479 -8.52964 9.2587 180 -76.8791 -180 7.96134 -4.6799 -0.325801 -15.4121 6.59537 -8.9008 2.7934 -7.38961 -31.7283 -0 -0 28.8699 4.67015e-07 -2.18041 0.847203 -0.0323001 -1.892e-07 -36.5993 6.34881 1.0638 -8.16037 -0 -0 44.2883 -1.49902e-05 -6.58864 23.7727 -2.66573 -4.61873e-05 -52.7925 
-61.49 85.827 1.8603 162.553 83.8333 -177.857 0 -0 0 11.1445 -12.0205 -7.89254 25.4442 -9.28357 3.8201e-05 56.3206 0.140268 -14.439 -0 64.6578 -0 -20.2599 3.06442 -0.547603 -28.7006 13.3535 -8.11468e-07 -42.9231 -8.16917 9.33493 180 -77.3334 -180 7.57112 -4.60696 -0.304997 -16.0294 6.51027 -8.58845 2.5647 -7.39105 -30.6191 -0 -0 27.8131 3.24497e-07 -2.6701 1.0147 -0.0472989 -2.43713e-07 -36.1108 6.10768 0.851196 -9.18524 -0 -0 45.6804 -5.29062e-06 -5.50993 23.3891 -2.19292 1.90927e-05 -51.5913 
-60.623 86.083 1.8875 160.477 83.6154 -179.905 0 -0 0 10.9034 -11.8225 -7.98084 25.3559 -9.2987 2.38213e-05 56.7284 0.205844 -14.5532 -0 65.0109 -0 -19.9101 3.21738 -0.564875 -28.7945 13.4195 7.80034e-05 -42.9157 -7.79461 9.37235 180 -77.8559 -180 7.18339 -4.53378 -0.284697 -16.6862 6.41775 -8.31007 2.28822 -7.34152 -29.5284 -0 -0 26.7874 -9.57732e-07 -3.14004 1.21801 -0.0667989 -2.10195e-07 -35.6641 5.79834 0.706002 -10.1976 -0 -0 46.9392 -1.17046e-05 -4.41256 22.8559 -1.7168 7.7143e-06 -50.8885 
-59.763 86.345 1.9052 158.215 83.4567 177.863 0 -0 0 10.6151 -11.5789 -8.04687 25.263 -9.28953 -1.62051e-05 57.101 0.297998 -14.5873 -5.52307e-07 65.3396 -8.61295e-07 -19.5439 3.48355 -0.600105 -28.8886 13.4973 -7.4696e-05 -42.8425 -7.41083 9.36323 180 -78.4448 180 6.81408 -4.46266 -0.265796 -17.3856 6.31922 -8.06596 1.97993 -7.25708 -28.4498 -0 -0 25.7905 2.17292e-06 -3.55757 1.46555 -0.0910997 3.95582e-07 -35.3853 5.43436 0.632199 -11.1807 -0 -0 48.0434 -3.26378e-06 -3.30607 22.2229 -1.25161 -5.2499e-06 -50.7143 
-58.908 86.609 1.9153 155.832 83.3498 175.505 0 -0 0 10.2981 -11.291 -8.08665 25.1634 -9.26124 1.44714e-05 57.4238 0.432474 -14.5197 -8.69317e-07 65.6249 -5.60502e-07 -19.1875 3.82658 -0.647002 -28.9824 13.5646 0.000158729 -42.7201 -6.99742 9.29184 180 -79.0893 -180 6.47627 -4.39414 -0.248706 -18.128 6.21705 -7.85124 1.66178 -7.16955 -27.3849 -0 -0 24.8266 -1.78375e-06 -3.883 1.76314 -0.1196 -5.57729e-07 -35.3323 5.03041 0.633589 -12.1248 -0 -0 48.9815 1.75133e-05 -2.19666 21.5256 -0.806387 -3.50994e-06 -50.871 
-58.056 86.874 1.9223 153.473 83.2836 173.152 0 -0 0 9.97472 -10.9643 -8.08794 25.0543 -9.20932 1.94705e-05 57.6878 0.609478 -14.3473 -0 65.8614 -0 -18.8543 4.20751 -0.69888 -29.0784 13.6284 9.64131e-05 -42.5617 -6.57145 9.15844 180 -79.7898 180 6.18181 -4.32948 -0.233906 -18.9099 6.11399 -7.66036 1.35272 -7.07902 -26.313 -0 -0 23.8604 1.29512e-06 -4.11174 2.12799 -0.152905 -2.78412e-06 -35.5657 4.61096 0.718607 -13.0152 -0 -0 49.7438 8.25202e-08 -1.0901 20.8056 -0.387206 -6.93978e-06 -51.2624 
-57.201 87.137 1.9297 151.206 83.2607 170.861 0 -0 0 9.65932 -10.6009 -8.04218 24.9328 -9.13475 3.07664e-05 57.8897 0.830189 -14.0655 -0 66.0548 -0 -18.5533 4.5896 -0.750096 -29.1751 13.6803 5.29717e-05 -42.3792 -6.13019 8.95836 180 -80.5514 -180 5.9382 -4.26897 -0.221493 -19.7214 6.01295 -7.48534 1.067 -6.99037 -25.2152 -0 -0 22.8704 -1.1189e-06 -4.24248 2.57126 -0.190696 -1.48511e-08 -36.0926 4.19348 0.893403 -13.8374 -0 -0 50.3266 2.36483e-08 0.00899994 20.0771 0.00309994 4.46529e-08 -51.5972 
